<?xml version="1.0" encoding="utf-8"?>
<!-- Generator: Adobe Illustrator 24.0.0, SVG Export Plug-In . SVG Version: 6.00 Build 0)  -->
<svg version="1.1" id="Layer_1" xmlns="http://www.w3.org/2000/svg" xmlns:xlink="http://www.w3.org/1999/xlink" x="0px" y="0px"
	 viewBox="0 0 630.7 338.7" style="enable-background:new 0 0 630.7 338.7;" xml:space="preserve"  width="250">
<style type="text/css">
	.st0{fill:#00AEEF;}
	.st1{fill:#BE1E2D;}
	.st2{opacity:0.42;enable-background:new    ;}
	.st3{fill:#D1A7A3;}
</style>
<g>
	<path class="st0" d="M291.6,154.9l-2.5,1.9c-1.4-1.8-3-3.1-4.9-4c-1.9-0.9-4-1.4-6.3-1.4c-2.5,0-4.8,0.6-6.9,1.8s-3.8,2.8-5,4.8
		s-1.8,4.3-1.8,6.8c0,3.8,1.3,7,3.9,9.6s5.9,3.8,9.9,3.8c4.4,0,8-1.7,11-5.1l2.5,1.9c-1.6,2-3.5,3.5-5.8,4.6s-4.9,1.6-7.8,1.6
		c-5.5,0-9.8-1.8-13-5.5c-2.6-3.1-4-6.8-4-11.1c0-4.6,1.6-8.4,4.8-11.6c3.2-3.1,7.2-4.7,12.1-4.7c2.9,0,5.6,0.6,7.9,1.7
		C288.2,151.1,290.1,152.8,291.6,154.9z"/>
	<path class="st0" d="M305.7,149.1h3.1v13.1h15.9v-13.1h3.1v31.3h-3.1v-15.1h-15.9v15.1h-3.1V149.1z"/>
	<path class="st0" d="M356.2,149.1l14.6,31.3h-3.4l-4.9-10.3H349l-4.9,10.3h-3.5l14.8-31.3H356.2z M355.8,155.7l-5.4,11.3h10.7
		L355.8,155.7z"/>
	<path class="st0" d="M383.5,180.4v-31.3h0.7l20.8,24v-24h3.1v31.3h-0.7l-20.7-23.7v23.7H383.5z"/>
	<path class="st0" d="M423.5,180.4v-31.3h6.5c4.7,0,8.1,0.4,10.2,1.1c3,1.1,5.4,2.9,7.1,5.5s2.6,5.8,2.6,9.4c0,3.1-0.7,5.9-2,8.3
		c-1.4,2.4-3.1,4.1-5.3,5.3c-2.2,1.1-5.2,1.7-9.1,1.7H423.5z M426.5,177.4h3.6c4.3,0,7.3-0.3,9-0.8c2.4-0.8,4.2-2.1,5.5-4.1
		c1.4-2,2-4.4,2-7.3c0-3-0.7-5.6-2.2-7.7s-3.5-3.6-6.1-4.4c-2-0.6-5.2-0.9-9.7-0.9h-2.2V177.4z"/>
	<path class="st0" d="M476.6,149.1l14.6,31.3h-3.4l-4.9-10.3h-13.5l-4.9,10.3H461l14.8-31.3H476.6z M476.2,155.7l-5.4,11.3h10.7
		L476.2,155.7z"/>
	<path class="st0" d="M503.9,149.1h3.1v28.3h12v3h-15.2L503.9,149.1L503.9,149.1z"/>
	<path class="st0" d="M544.6,149.1l14.6,31.3h-3.4l-4.9-10.3h-13.5l-4.9,10.3h-3.5l14.8-31.3H544.6z M544.2,155.7l-5.4,11.3h10.7
		L544.2,155.7z"/>
	<path class="st0" d="M259.6,234.8l4.3-2.6c3,5.5,6.5,8.3,10.4,8.3c1.7,0,3.3-0.4,4.8-1.2c1.5-0.8,2.6-1.8,3.4-3.2
		c0.8-1.3,1.2-2.7,1.2-4.2c0-1.7-0.6-3.3-1.7-5c-1.6-2.2-4.5-4.9-8.6-8.1c-4.2-3.2-6.8-5.5-7.8-6.9c-1.8-2.4-2.7-4.9-2.7-7.7
		c0-2.2,0.5-4.2,1.6-6c1-1.8,2.5-3.2,4.4-4.3s4-1.6,6.2-1.6c2.4,0,4.6,0.6,6.7,1.8c2.1,1.2,4.3,3.3,6.5,6.5l-4.1,3.1
		c-1.9-2.5-3.5-4.2-4.8-5s-2.8-1.2-4.4-1.2c-2,0-3.7,0.6-5,1.9c-1.3,1.2-1.9,2.8-1.9,4.6c0,1.1,0.2,2.2,0.7,3.2
		c0.5,1,1.3,2.1,2.5,3.4c0.7,0.6,2.8,2.3,6.5,5c4.4,3.2,7.4,6.1,9,8.6s2.4,5,2.4,7.6c0,3.6-1.4,6.8-4.2,9.5c-2.8,2.7-6.1,4-10.1,4
		c-3.1,0-5.8-0.8-8.3-2.4S261.7,238.6,259.6,234.8z"/>
	<path class="st0" d="M308.6,198.8v-4.9h27.6v4.9h-11.2v45.4h-5.1v-45.4H308.6z"/>
	<path class="st0" d="M357.5,193.9h5v30.4c0,3.6,0.1,5.9,0.2,6.7c0.3,2,0.8,3.6,1.7,5s2.3,2.4,4.2,3.4c1.9,0.9,3.8,1.4,5.7,1.4
		c1.7,0,3.3-0.4,4.8-1.1c1.5-0.7,2.8-1.7,3.8-2.9s1.8-2.8,2.3-4.6c0.3-1.3,0.5-3.9,0.5-7.9v-30.4h5v30.4c0,4.5-0.4,8.1-1.3,10.9
		c-0.9,2.8-2.6,5.2-5.3,7.2c-2.6,2.1-5.8,3.1-9.6,3.1c-4.1,0-7.5-1-10.4-2.9s-4.8-4.5-5.8-7.7c-0.6-2-0.9-5.5-0.9-10.6L357.5,193.9
		L357.5,193.9z"/>
	<path class="st0" d="M417.1,244.2v-50.3h10.4c7.5,0,13,0.6,16.4,1.8c4.9,1.7,8.7,4.7,11.5,8.9s4.1,9.3,4.1,15.1
		c0,5-1.1,9.5-3.3,13.3s-5,6.7-8.5,8.5c-3.5,1.8-8.4,2.7-14.6,2.7H417.1z M421.9,239.4h5.8c7,0,11.8-0.4,14.5-1.3
		c3.8-1.2,6.8-3.4,8.9-6.6c2.2-3.2,3.3-7.1,3.3-11.8c0-4.9-1.2-9-3.5-12.4c-2.4-3.4-5.6-5.8-9.8-7.1c-3.1-1-8.3-1.4-15.6-1.4h-3.6
		L421.9,239.4L421.9,239.4z"/>
	<path class="st0" d="M482.4,193.9h5v50.3h-5V193.9z"/>
	<path class="st0" d="M536.8,192.6c7.6,0,14,2.5,19.1,7.6c5.1,5.1,7.7,11.4,7.7,18.8c0,7.4-2.6,13.6-7.7,18.8
		c-5.1,5.1-11.4,7.7-18.8,7.7c-7.5,0-13.8-2.6-18.9-7.7c-5.1-5.1-7.7-11.3-7.7-18.6c0-4.8,1.2-9.3,3.5-13.4c2.3-4.1,5.5-7.4,9.6-9.7
		S532.1,192.6,536.8,192.6z M537,197.5c-3.7,0-7.3,1-10.6,2.9c-3.3,1.9-5.9,4.6-7.8,7.8c-1.9,3.3-2.8,6.9-2.8,11
		c0,6,2.1,11,6.2,15.1c4.2,4.1,9.2,6.2,15,6.2c3.9,0,7.5-0.9,10.8-2.8c3.3-1.9,5.9-4.5,7.8-7.8c1.9-3.3,2.8-6.9,2.8-11
		c0-4-0.9-7.6-2.8-10.8s-4.5-5.8-7.9-7.8C544.4,198.4,540.8,197.5,537,197.5z"/>
</g>
<g>
	<polygon class="st1" points="93.6,242 192.3,242 142.9,218.2 	"/>
	<polygon class="st1" points="142.9,25.7 109.1,68.2 130.8,78.8 	"/>
	<polygon class="st1" points="109,68.2 109,68.2 109.1,68.2 	"/>
	<polygon class="st1" points="81,187.6 88.7,154.9 84.1,152.6 87.6,148.2 66.3,121.1 96.9,106.6 95.7,101.5 101.2,101.5 109,68.2 
		108.8,68.5 54,68.5 66.2,122 32,164.8 81.4,188.6 93.6,242 105.9,187.8 	"/>
	<polygon class="st1" points="219.7,122 231.9,68.5 177.1,68.5 142.9,25.7 155.1,79 177.1,68.6 184.4,101.5 190.2,101.5 
		188.9,107.3 219.2,122.1 198.3,148.1 201.9,152.6 196.3,155.3 203.7,188.4 180,188.2 192.3,242 204.5,188.6 253.9,164.8 	"/>
	<path class="st1" d="M143,78.8l-18,22.6l17.8,8.7c-9,0.1-17.1,4.2-22.4,10.7l4.6-19.4l-0.2,0.2h-23.6l-0.8,3.4l-3.5,1.7l5.3,23.3
		l-14.6,18.4l2,2.6l-0.9,4l21.6,10.4l6.5,28.4L143,181l26.2,12.6l6.5-28.4l20.7-10l-0.8-3.8l2.8-3.4l-14.5-18.2l5.2-22.6l-3.6-1.8
		l-0.9-4h-23.3L143,78.8z M143,112.6c14.7,0,26.6,11.9,26.6,26.6s-11.9,26.6-26.6,26.6s-26.6-11.9-26.6-26.6S128.3,112.6,143,112.6z
		 M120.3,120.9c-4,5-6.5,11.4-6.5,18.3c0,1.9,0.2,3.8,0.6,5.6l-12.1-15.4L120.3,120.9z M110.1,164.7l4.5-19.1
		c1.9,8.3,7.3,15.2,14.5,19.2L110.1,164.7z M142.6,180.6l-11.8-15c3.7,1.7,7.8,2.7,12.2,2.7c4,0,7.8-0.8,11.3-2.3L142.6,180.6z
		 M156.5,165c7.1-3.8,12.5-10.4,14.6-18.3l4.1,18.4L156.5,165z M183.5,130l-11.9,14.7c0.3-1.8,0.5-3.6,0.5-5.4
		c0-6.7-2.3-12.8-6.1-17.8L183.5,130z M165.3,120.5c-5.3-6.3-13.2-10.3-22.1-10.4l17.9-8.5L165.3,120.5z"/>
	<circle class="st1" cx="143" cy="139.2" r="13.6"/>
	<path class="st1" d="M142.8,160.9c12,0,21.7-9.7,21.7-21.7s-9.7-21.7-21.7-21.7c-12,0-21.7,9.7-21.7,21.7S130.8,160.9,142.8,160.9z
		 M143,124.3c8.2,0,14.9,6.7,14.9,14.9s-6.7,14.9-14.9,14.9s-14.9-6.7-14.9-14.9S134.8,124.3,143,124.3z"/>
</g>
<g class="st2">
	<path class="st3" d="M94.5,301c-3.4,3.4-8.3,5-13.8,5H61.9v-52.1h18.8c5.4,0,10.3,1.5,13.8,5c5.9,5.9,5.3,13,5.3,20.9
		C99.8,287.5,100.4,295.1,94.5,301z M87.4,266.1c-1.8-2.1-4.1-3.2-7.6-3.2h-7.7v34h7.7c3.5,0,5.9-1.1,7.6-3.2
		c1.9-2.3,2.2-6.1,2.2-14C89.6,271.8,89.3,268.5,87.4,266.1z"/>
	<path class="st3" d="M116.9,289.9c0,4.9,3,8.5,8.3,8.5c4.2,0,6.2-1.2,8.6-3.6l5.8,5.6c-3.9,3.9-7.6,6-14.5,6
		c-9,0-17.6-4.1-17.6-19.5c0-12.4,6.7-19.5,16.6-19.5c10.6,0,16.6,7.8,16.6,18.2v4.2H116.9z M130.5,279.2c-1-2.3-3.1-4-6.4-4
		s-5.3,1.7-6.4,4c-0.6,1.4-0.8,2.4-0.9,4.1h14.5C131.3,281.7,131.1,280.6,130.5,279.2z"/>
	<path class="st3" d="M162.1,306.4c-6,0-11.4-0.7-16.3-5.5l6.2-6.2c3.1,3.1,7.2,3.6,10.2,3.6c3.3,0,6.7-1.1,6.7-4c0-1.9-1-3.2-4-3.5
		l-6-0.6c-6.9-0.7-11.1-3.7-11.1-10.7c0-7.9,7-12.2,14.7-12.2c5.9,0,10.9,1,14.6,4.5l-5.9,5.9c-2.2-2-5.6-2.6-8.9-2.6
		c-3.8,0-5.4,1.8-5.4,3.7c0,1.4,0.6,3,4,3.3l6,0.6c7.5,0.7,11.3,4.8,11.3,11.2C178.3,302.4,171.1,306.4,162.1,306.4z"/>
	<path class="st3" d="M212.6,301.7c-2.3,2.5-6.2,4.7-11.9,4.7s-9.4-2.2-11.8-4.7c-3.4-3.6-4.3-7.9-4.3-14.9c0-6.9,0.9-11.2,4.3-14.8
		c2.3-2.5,6.1-4.7,11.8-4.7s9.5,2.2,11.9,4.7c3.4,3.6,4.3,7.9,4.3,14.8C216.9,293.8,216,298.1,212.6,301.7z M205.2,277.6
		c-1.1-1.1-2.6-1.7-4.5-1.7s-3.3,0.6-4.4,1.7c-2,2-2.2,5.3-2.2,9.2s0.2,7.3,2.2,9.3c1.1,1.1,2.5,1.7,4.4,1.7s3.4-0.6,4.5-1.7
		c2-2,2.2-5.3,2.2-9.3S207.2,279.6,205.2,277.6z"/>
	<path class="st3" d="M246.7,278.2c-1.5-1.5-2.7-2.3-5.1-2.3c-2.9,0-6.1,2.2-6.1,7v23H226v-38.1h9.3v3.7c1.8-2.2,5.5-4.1,9.6-4.1
		c3.7,0,6.4,1,9,3.6L246.7,278.2z"/>
	<path class="st3" d="M278.1,306v-3.6c-2.6,2.9-5.4,4-9.4,4c-3.7,0-7.2-1.3-9.4-3.4c-3.8-3.8-3.9-10.4-3.9-16.1
		c0-5.7,0.1-12.2,3.9-16c2.1-2.1,5.6-3.4,9.3-3.4c3.9,0,6.8,1,9.3,3.8v-17.4h9.5V306H278.1z M271.4,275.9c-5.7,0-6.4,4.7-6.4,10.9
		c0,6.2,0.7,11,6.4,11s6.5-4.8,6.5-11C277.9,280.6,277.1,275.9,271.4,275.9z"/>
	<path class="st3" d="M305.6,289.9c0,4.9,3,8.5,8.3,8.5c4.2,0,6.2-1.2,8.6-3.6l5.8,5.6c-3.9,3.9-7.6,6-14.5,6
		c-9,0-17.6-4.1-17.6-19.5c0-12.4,6.7-19.5,16.6-19.5c10.6,0,16.6,7.8,16.6,18.2v4.2H305.6z M319.2,279.2c-1-2.3-3.1-4-6.4-4
		c-3.2,0-5.3,1.7-6.4,4c-0.6,1.4-0.8,2.4-0.9,4.1h14.5C320,281.7,319.8,280.6,319.2,279.2z"/>
	<path class="st3" d="M360.4,306v-23.1c0-5.2-3.3-7-6.3-7s-6.4,1.8-6.4,7V306h-9.5v-38.1h9.3v3.5c2.5-2.6,6-4,9.5-4
		c3.8,0,6.9,1.2,9,3.4c3.1,3.1,3.9,6.7,3.9,10.8V306H360.4z"/>
	<path class="st3" d="M416.9,306h-7.6L392,253.8h10.5l10.5,34l10.5-34h10.6L416.9,306z"/>
	<path class="st3" d="M444.5,263.1c-3.3,0-6-2.7-6-6c0-3.3,2.7-5.9,6-5.9c3.3,0,5.9,2.6,5.9,5.9
		C450.4,260.4,447.8,263.1,444.5,263.1z M439.7,306v-38.1h9.5V306H439.7z"/>
	<path class="st3" d="M472.3,306.4c-6,0-11.4-0.7-16.3-5.5l6.2-6.2c3.1,3.1,7.2,3.6,10.2,3.6c3.3,0,6.7-1.1,6.7-4c0-1.9-1-3.2-4-3.5
		l-6-0.6c-6.9-0.7-11.1-3.7-11.1-10.7c0-7.9,7-12.2,14.7-12.2c5.9,0,10.9,1,14.6,4.5l-5.9,5.9c-2.2-2-5.6-2.6-8.9-2.6
		c-3.8,0-5.4,1.8-5.4,3.7c0,1.4,0.6,3,4,3.3l6,0.6c7.5,0.7,11.3,4.8,11.3,11.2C488.5,302.4,481.4,306.4,472.3,306.4z"/>
	<path class="st3" d="M518.5,306v-3.5c-2.5,2.6-6,4-9.5,4c-3.8,0-6.9-1.2-9-3.4c-3.1-3.1-3.9-6.7-3.9-10.8v-24.4h9.5v23.1
		c0,5.2,3.3,7,6.3,7s6.4-1.8,6.4-7v-23.1h9.5V306H518.5z"/>
	<path class="st3" d="M558,306v-3.3c-2.6,2.6-5,3.7-9.4,3.7c-4.3,0-7.5-1.1-9.7-3.4c-2.1-2.1-3.1-5.2-3.1-8.6
		c0-6.1,4.2-11.1,13-11.1h9v-1.9c0-4.2-2-6-7.1-6c-3.7,0-5.3,0.9-7.3,3.1l-6.1-5.9c3.7-4.1,7.4-5.3,13.8-5.3
		c10.7,0,16.3,4.5,16.3,13.5V306H558z M557.8,289.9h-7.5c-3.4,0-5.3,1.6-5.3,4.3c0,2.6,1.8,4.4,5.5,4.4c2.6,0,4.3-0.2,6-1.8
		c1-1,1.4-2.5,1.4-4.8V289.9z"/>
	<path class="st3" d="M588.3,306c-7.8,0-11.1-5.5-11.1-10.9v-41.2h9.5v40.6c0,2.3,1,3.4,3.4,3.4h3.7v8.1H588.3z"/>
</g>
</svg>
